#define Arrow_width 10
#define Arrow_height 5
static unsigned char Arrow_bits[] = {
   0x60, 0x00, 0xfe, 0x00, 0xfe, 0x01, 0xfe, 0x00, 0x60, 0x00 };
