#define Axes_width 20
#define Axes_height 20
static unsigned char Axes_bits[] = {
   0x00, 0x01, 0x00, 0x80, 0xf3, 0x01, 0xc0, 0x07, 0x01, 0x00, 0x81, 0x00,
   0x00, 0x41, 0x00, 0x00, 0x21, 0x00, 0x00, 0xf1, 0x01, 0x00, 0x01, 0x00,
   0x00, 0x01, 0x00, 0x09, 0x01, 0x02, 0x09, 0x01, 0x06, 0x0f, 0xff, 0x0f,
   0x88, 0x00, 0x06, 0x49, 0x00, 0x02, 0x2f, 0x88, 0x00, 0x10, 0x50, 0x00,
   0x0a, 0x20, 0x00, 0x06, 0x50, 0x00, 0x0e, 0x88, 0x00, 0x00, 0x00, 0x00 };
