#define BT_OFF_width 20
#define BT_OFF_height 20
static unsigned char BT_OFF_bits[] = {
   0x00, 0x00, 0x00, 0x00, 0x06, 0x00, 0x00, 0x0a, 0x00, 0x08, 0x12, 0x00,
   0x10, 0x22, 0x00, 0x20, 0x42, 0x00, 0x40, 0x22, 0x00, 0x80, 0x12, 0x00,
   0x00, 0x0b, 0x00, 0x00, 0x06, 0x00, 0x00, 0x06, 0x00, 0x00, 0x0b, 0x00,
   0x80, 0x12, 0x00, 0x40, 0x22, 0x00, 0x20, 0x42, 0x00, 0x10, 0x22, 0x00,
   0x08, 0x12, 0x00, 0x00, 0x0a, 0x00, 0x00, 0x06, 0x00, 0x00, 0x00, 0x00 };
