#define BT_ON_width 20
#define BT_ON_height 20
static unsigned char BT_ON_bits[] = {
   0x00, 0x00, 0x00, 0x00, 0x06, 0x00, 0x00, 0x0e, 0x00, 0x08, 0x1e, 0x00,
   0x10, 0x3e, 0x00, 0x20, 0x7e, 0x00, 0x40, 0x3e, 0x00, 0x80, 0x1e, 0x00,
   0x00, 0x0f, 0x00, 0x00, 0x06, 0x00, 0x00, 0x06, 0x00, 0x00, 0x0f, 0x00,
   0x80, 0x1e, 0x00, 0x40, 0x3e, 0x00, 0x20, 0x7e, 0x00, 0x10, 0x3e, 0x00,
   0x08, 0x1e, 0x00, 0x00, 0x0e, 0x00, 0x00, 0x06, 0x00, 0x00, 0x00, 0x00 };
