#define SD_card_none_width 15
#define SD_card_none_height 20
static unsigned char SD_card_none_bits[] = {
   0xff, 0x03, 0xff, 0x07, 0xff, 0x0f, 0xff, 0x1f, 0xff, 0x3f, 0x07, 0x78,
   0x0b, 0x74, 0x13, 0x72, 0x23, 0x71, 0xc3, 0x70, 0xc3, 0x70, 0x23, 0x71,
   0x13, 0x72, 0x0b, 0x74, 0x07, 0x78, 0xff, 0x7f, 0xff, 0x7f, 0x01, 0x40,
   0x01, 0x40, 0xff, 0x7f };
