#define Spindle_on_width 15
#define Spindle_on_height 20
static unsigned char Spindle_on_bits[] = {
   0xf8, 0x0f, 0xc8, 0x0f, 0xe8, 0x0b, 0xf8, 0x09, 0xf8, 0x0c, 0x78, 0x0e,
   0x38, 0x0f, 0x98, 0x0f, 0xc8, 0x0f, 0xe8, 0x0b, 0xf8, 0x09, 0xf8, 0x0f,
   0xf8, 0x0f, 0xf0, 0x07, 0xe0, 0x03, 0xc8, 0x09, 0x90, 0x04, 0xa0, 0x02,
   0xc0, 0x01, 0xa0, 0x02 };
