#define Spindle_off_width 15
#define Spindle_off_height 20
static unsigned char Spindle_off_bits[] = {
   0xf8, 0x0f, 0x78, 0x0c, 0x38, 0x0e, 0x18, 0x0f, 0x88, 0x0f, 0xc8, 0x0b,
   0xe8, 0x09, 0xf8, 0x08, 0x78, 0x0c, 0x38, 0x0e, 0x18, 0x0f, 0xf8, 0x0f,
   0xf8, 0x0f, 0xf0, 0x07, 0xe0, 0x03, 0xc0, 0x01, 0x80, 0x00, 0x80, 0x00,
   0x80, 0x00, 0x80, 0x00 };
