#define UnLock_width 20
#define UnLock_height 20
static unsigned char UnLock_bits[] = {
   0x00, 0x00, 0x00, 0xfc, 0xff, 0x03, 0x04, 0x00, 0x02, 0x04, 0x00, 0x00,
   0x04, 0x00, 0x00, 0x04, 0x00, 0x00, 0x04, 0x00, 0x00, 0x04, 0x00, 0x00,
   0xfe, 0xff, 0x07, 0xfe, 0xff, 0x07, 0x3e, 0xc0, 0x07, 0xbe, 0xdf, 0x07,
   0xbe, 0xdf, 0x07, 0x3e, 0xc0, 0x07, 0x7e, 0xef, 0x07, 0x7e, 0xef, 0x07,
   0x7e, 0xe0, 0x07, 0xfe, 0xff, 0x07, 0xfe, 0xff, 0x07, 0x00, 0x00, 0x00 };
